<svg width="160" height="50" viewBox="0 0 160 50" fill="none" xmlns="http://www.w3.org/2000/svg">
<path d="M54 44.46V36.76H56.651C57.2597 36.76 57.7583 36.8627 58.147 37.068C58.543 37.2733 58.8363 37.552 59.027 37.904C59.2177 38.2487 59.313 38.6337 59.313 39.059C59.313 39.5357 59.1847 39.9683 58.928 40.357C58.6787 40.7457 58.2863 41.0243 57.751 41.193L59.39 44.46H58.037L56.541 41.358H55.166V44.46H54ZM55.166 40.478H56.585C57.113 40.478 57.498 40.3497 57.74 40.093C57.9893 39.8363 58.114 39.5027 58.114 39.092C58.114 38.6813 57.993 38.355 57.751 38.113C57.509 37.8637 57.1167 37.739 56.574 37.739H55.166V40.478Z" fill="#E4C590"/>
<path d="M64.6524 44.46V36.76H69.5474V37.706H65.8184V40.104H69.2174V41.028H65.8184V43.514H69.5474V44.46H64.6524Z" fill="#E4C590"/>
<path d="M77.4376 44.592C76.8729 44.592 76.3779 44.493 75.9526 44.295C75.5272 44.097 75.1936 43.8147 74.9516 43.448C74.7169 43.0813 74.5959 42.645 74.5886 42.139H75.8206C75.8279 42.5497 75.9709 42.898 76.2496 43.184C76.5282 43.47 76.9206 43.613 77.4266 43.613C77.8739 43.613 78.2222 43.5067 78.4716 43.294C78.7282 43.074 78.8566 42.7953 78.8566 42.458C78.8566 42.1867 78.7942 41.9667 78.6696 41.798C78.5522 41.6293 78.3872 41.49 78.1746 41.38C77.9692 41.27 77.7309 41.171 77.4596 41.083C77.1882 40.995 76.9022 40.8997 76.6016 40.797C76.0076 40.599 75.5602 40.3423 75.2596 40.027C74.9662 39.7117 74.8196 39.2973 74.8196 38.784C74.8122 38.3513 74.9112 37.9737 75.1166 37.651C75.3292 37.3283 75.6226 37.079 75.9966 36.903C76.3779 36.7197 76.8216 36.628 77.3276 36.628C77.8262 36.628 78.2626 36.7197 78.6366 36.903C79.0179 37.0863 79.3149 37.343 79.5276 37.673C79.7402 37.9957 79.8502 38.3733 79.8576 38.806H78.6256C78.6256 38.608 78.5742 38.421 78.4716 38.245C78.3689 38.0617 78.2186 37.9113 78.0206 37.794C77.8226 37.6767 77.5806 37.618 77.2946 37.618C76.9279 37.6107 76.6236 37.7023 76.3816 37.893C76.1469 38.0837 76.0296 38.3477 76.0296 38.685C76.0296 38.9857 76.1176 39.2167 76.2936 39.378C76.4696 39.5393 76.7116 39.675 77.0196 39.785C77.3276 39.8877 77.6796 40.0087 78.0756 40.148C78.4569 40.2727 78.7979 40.423 79.0986 40.599C79.3992 40.775 79.6376 41.006 79.8136 41.292C79.9969 41.578 80.0886 41.941 80.0886 42.381C80.0886 42.7697 79.9896 43.1327 79.7916 43.47C79.5936 43.8 79.2966 44.0713 78.9006 44.284C78.5046 44.4893 78.0169 44.592 77.4376 44.592Z" fill="#E4C590"/>
<path d="M86.9877 44.46V37.706H84.7107V36.76H90.4197V37.706H88.1537V44.46H86.9877Z" fill="#E4C590"/>
<path d="M94.138 44.46L96.976 36.76H98.252L101.068 44.46H99.836L99.176 42.579H96.03L95.37 44.46H94.138ZM96.36 41.655H98.846L97.603 38.146L96.36 41.655Z" fill="#E4C590"/>
<path d="M108.651 44.592C108.101 44.592 107.602 44.4857 107.155 44.273C106.715 44.053 106.363 43.7193 106.099 43.272C105.842 42.8247 105.714 42.2563 105.714 41.567V36.76H106.88V41.578C106.88 42.2527 107.041 42.7477 107.364 43.063C107.686 43.3783 108.123 43.536 108.673 43.536C109.215 43.536 109.648 43.3783 109.971 43.063C110.293 42.7477 110.455 42.2527 110.455 41.578V36.76H111.621V41.567C111.621 42.2563 111.485 42.8247 111.214 43.272C110.95 43.7193 110.59 44.053 110.136 44.273C109.688 44.4857 109.193 44.592 108.651 44.592Z" fill="#E4C590"/>
<path d="M117.076 44.46V36.76H119.727C120.336 36.76 120.835 36.8627 121.223 37.068C121.619 37.2733 121.913 37.552 122.103 37.904C122.294 38.2487 122.389 38.6337 122.389 39.059C122.389 39.5357 122.261 39.9683 122.004 40.357C121.755 40.7457 121.363 41.0243 120.827 41.193L122.466 44.46H121.113L119.617 41.358H118.242V44.46H117.076ZM118.242 40.478H119.661C120.189 40.478 120.574 40.3497 120.816 40.093C121.066 39.8363 121.19 39.5027 121.19 39.092C121.19 38.6813 121.069 38.355 120.827 38.113C120.585 37.8637 120.193 37.739 119.65 37.739H118.242V40.478Z" fill="#E4C590"/>
<path d="M127.234 44.46L130.072 36.76H131.348L134.164 44.46H132.932L132.272 42.579H129.126L128.466 44.46H127.234ZM129.456 41.655H131.942L130.699 38.146L129.456 41.655Z" fill="#E4C590"/>
<path d="M139.198 44.46V36.76H140.364L144.225 42.557V36.76H145.391V44.46H144.225L140.364 38.663V44.46H139.198Z" fill="#E4C590"/>
<path d="M152.717 44.46V37.706H150.44V36.76H156.149V37.706H153.883V44.46H152.717Z" fill="#E4C590"/>
<path fill-rule="evenodd" clip-rule="evenodd" d="M32.5132 42.597C29.684 44.1297 26.4436 45 23 45C11.9543 45 3 36.0457 3 25C3 13.9543 11.9543 5 23 5C26.0521 5 28.9446 5.68368 31.5326 6.90625C31.3663 7.11885 31.209 7.34319 31.0619 7.57929C30.37 8.68974 29.8253 10.0318 29.47 11.4633C27.5111 10.5253 25.3169 10 23 10C14.7157 10 8 16.7157 8 25C8 33.2843 14.7157 40 23 40C27.2915 40 31.162 38.1978 33.8961 35.309C33.5961 36.4152 33.1892 37.6031 32.6373 38.9318C32.2262 39.809 32.1122 40.4488 32.1122 41.4602C32.1122 41.8663 32.2596 42.247 32.5132 42.597ZM29.0138 14.6134C28.8567 18.2765 30.0306 21.8663 33.1625 23.2555C34.135 24.128 34.7379 25.2124 34.7379 26.6199C34.7379 26.9224 34.7379 27.2186 34.7371 27.5099C33.5832 32.9324 28.7666 37 23 37C16.3726 37 11 31.6274 11 25C11 18.3726 16.3726 13 23 13C25.1914 13 27.2456 13.5874 29.0138 14.6134Z" fill="#E4C590"/>
<path d="M41.7607 22.8781C46.7982 20.5576 46.5779 13.151 43.8104 8.53905C40.9996 3.85445 36.7943 3.78631 33.9427 8.53905C31.1901 13.126 30.9363 20.5491 35.9923 22.8781C36.9183 23.7408 37.6263 25.4349 37.6263 26.8266C37.6263 31.0162 37.8838 34.3087 35.7001 39.1394C35.3086 40.0068 35.1257 40.6631 35.1257 41.2062C35.1257 43.2981 36.8081 45 38.8765 45C40.9449 45 42.6273 43.2981 42.6273 41.2062C42.6273 40.6631 42.4445 40.0068 42.053 39.1394C39.8389 34.2417 40.1268 30.7222 40.1268 26.8266C40.1268 25.4349 40.8348 23.7408 41.7607 22.8781Z" fill="#E4C590"/>
<path d="M56.5139 27V13.9091H60.9372C61.96 13.9091 62.7994 14.0838 63.4557 14.4332C64.1119 14.7784 64.5977 15.2536 64.9131 15.8587C65.2284 16.4638 65.3861 17.152 65.3861 17.9233C65.3861 18.6946 65.2284 19.3786 64.9131 19.9751C64.5977 20.5717 64.1141 21.0405 63.4621 21.3814C62.8101 21.718 61.977 21.8864 60.9628 21.8864H57.3833V20.4545H60.9117C61.6105 20.4545 62.173 20.3523 62.5992 20.1477C63.0296 19.9432 63.3406 19.6534 63.5324 19.2784C63.7284 18.8991 63.8264 18.4474 63.8264 17.9233C63.8264 17.3991 63.7284 16.9411 63.5324 16.549C63.3364 16.157 63.0232 15.8544 62.5928 15.6413C62.1624 15.424 61.5935 15.3153 60.8861 15.3153H58.0992V27H56.5139ZM62.6759 21.1193L65.8975 27H64.0566L60.8861 21.1193H62.6759ZM71.8341 27.2045C70.8881 27.2045 70.072 26.9957 69.3859 26.5781C68.7041 26.1562 68.1778 25.5682 67.8071 24.8139C67.4406 24.0554 67.2574 23.1733 67.2574 22.1676C67.2574 21.1619 67.4406 20.2756 67.8071 19.5085C68.1778 18.7372 68.6934 18.1364 69.354 17.706C70.0187 17.2713 70.7943 17.054 71.6807 17.054C72.192 17.054 72.697 17.1392 73.1956 17.3097C73.6942 17.4801 74.148 17.7571 74.5571 18.1406C74.9662 18.5199 75.2922 19.0227 75.5351 19.6491C75.778 20.2756 75.8994 21.0469 75.8994 21.9631V22.6023H68.3312V21.2983H74.3653C74.3653 20.7443 74.2545 20.25 74.0329 19.8153C73.8156 19.3807 73.5045 19.0376 73.0997 18.7862C72.6991 18.5348 72.2261 18.4091 71.6807 18.4091C71.0798 18.4091 70.5599 18.5582 70.121 18.8565C69.6863 19.1506 69.3518 19.5341 69.1175 20.0071C68.8831 20.4801 68.7659 20.9872 68.7659 21.5284V22.3977C68.7659 23.1392 68.8937 23.7678 69.1494 24.2834C69.4094 24.7947 69.7694 25.1847 70.2297 25.4531C70.6899 25.7173 71.2247 25.8494 71.8341 25.8494C72.2304 25.8494 72.5883 25.794 72.9079 25.6832C73.2318 25.5682 73.5109 25.3977 73.7453 25.1719C73.9797 24.9418 74.1608 24.6562 74.2886 24.3153L75.746 24.7244C75.5926 25.2188 75.3348 25.6534 74.9726 26.0284C74.6104 26.3991 74.1629 26.6889 73.6302 26.8977C73.0976 27.1023 72.4988 27.2045 71.8341 27.2045ZM81.9015 27.2045C81.0834 27.2045 80.3611 26.9979 79.7346 26.5845C79.1082 26.1669 78.6182 25.5788 78.2645 24.8203C77.9108 24.0575 77.7339 23.1562 77.7339 22.1165C77.7339 21.0852 77.9108 20.1903 78.2645 19.4318C78.6182 18.6733 79.1104 18.0874 79.741 17.674C80.3717 17.2607 81.1004 17.054 81.9271 17.054C82.5663 17.054 83.0713 17.1605 83.442 17.3736C83.817 17.5824 84.1025 17.821 84.2986 18.0895C84.4988 18.3537 84.6544 18.571 84.7652 18.7415H84.893V13.9091H86.4015V27H84.9442V25.4915H84.7652C84.6544 25.6705 84.4967 25.8963 84.2922 26.169C84.0876 26.4375 83.7957 26.6783 83.4165 26.8913C83.0372 27.1001 82.5322 27.2045 81.9015 27.2045ZM82.1061 25.8494C82.7112 25.8494 83.2226 25.6918 83.6402 25.3764C84.0578 25.0568 84.3753 24.6158 84.5926 24.0533C84.8099 23.4865 84.9186 22.8324 84.9186 22.0909C84.9186 21.358 84.8121 20.7166 84.599 20.1669C84.3859 19.6129 84.0706 19.1825 83.653 18.8757C83.2354 18.5646 82.7197 18.4091 82.1061 18.4091C81.4669 18.4091 80.9342 18.5732 80.5081 18.9013C80.0862 19.2251 79.7687 19.6662 79.5557 20.2244C79.3469 20.7784 79.2425 21.4006 79.2425 22.0909C79.2425 22.7898 79.349 23.4247 79.5621 23.9957C79.7794 24.5625 80.099 25.0142 80.5209 25.3509C80.947 25.6832 81.4754 25.8494 82.1061 25.8494ZM98.6807 27H94.6409V13.9091H98.8596C100.13 13.9091 101.216 14.1712 102.12 14.6953C103.023 15.2152 103.715 15.9631 104.197 16.9389C104.679 17.9105 104.919 19.0739 104.919 20.429C104.919 21.7926 104.676 22.9666 104.191 23.951C103.705 24.9311 102.997 25.6854 102.068 26.2138C101.139 26.7379 100.01 27 98.6807 27ZM96.2261 25.5938H98.5784C99.6608 25.5938 100.558 25.3849 101.269 24.9673C101.981 24.5497 102.512 23.9553 102.861 23.1839C103.21 22.4126 103.385 21.4943 103.385 20.429C103.385 19.3722 103.213 18.4624 102.867 17.6996C102.522 16.9325 102.007 16.3445 101.321 15.9354C100.634 15.522 99.7801 15.3153 98.7574 15.3153H96.2261V25.5938ZM107.374 27V17.1818H108.831V18.6648H108.934C109.112 18.179 109.436 17.7848 109.905 17.4822C110.374 17.1797 110.902 17.0284 111.49 17.0284C111.601 17.0284 111.74 17.0305 111.906 17.0348C112.072 17.0391 112.198 17.0455 112.283 17.054V18.5881C112.232 18.5753 112.115 18.5561 111.931 18.5305C111.752 18.5007 111.563 18.4858 111.362 18.4858C110.885 18.4858 110.459 18.5859 110.084 18.7862C109.713 18.9822 109.419 19.255 109.202 19.6044C108.989 19.9496 108.882 20.3437 108.882 20.7869V27H107.374ZM116.96 27.2301C116.338 27.2301 115.774 27.1129 115.266 26.8786C114.759 26.6399 114.357 26.2969 114.058 25.8494C113.76 25.3977 113.611 24.8523 113.611 24.2131C113.611 23.6506 113.722 23.1946 113.943 22.8452C114.165 22.4915 114.461 22.2145 114.832 22.0142C115.203 21.8139 115.612 21.6648 116.059 21.5668C116.511 21.4645 116.965 21.3835 117.421 21.3239C118.017 21.2472 118.501 21.1896 118.872 21.1513C119.247 21.1087 119.519 21.0384 119.69 20.9403C119.864 20.8423 119.952 20.6719 119.952 20.429V20.3778C119.952 19.7472 119.779 19.2571 119.434 18.9077C119.093 18.5582 118.575 18.3835 117.881 18.3835C117.161 18.3835 116.596 18.5412 116.187 18.8565C115.778 19.1719 115.49 19.5085 115.324 19.8665L113.892 19.3551C114.148 18.7585 114.489 18.294 114.915 17.9616C115.345 17.625 115.814 17.3906 116.321 17.2585C116.832 17.1222 117.335 17.054 117.83 17.054C118.145 17.054 118.507 17.0923 118.916 17.169C119.33 17.2415 119.728 17.3928 120.112 17.6229C120.499 17.853 120.821 18.2003 121.077 18.6648C121.332 19.1293 121.46 19.7514 121.46 20.5312V27H119.952V25.6705H119.875C119.773 25.8835 119.602 26.1115 119.364 26.3544C119.125 26.5973 118.808 26.804 118.411 26.9744C118.015 27.1449 117.531 27.2301 116.96 27.2301ZM117.19 25.875C117.787 25.875 118.29 25.7578 118.699 25.5234C119.112 25.2891 119.423 24.9865 119.632 24.6158C119.845 24.245 119.952 23.8551 119.952 23.446V22.0653C119.888 22.142 119.747 22.2124 119.53 22.2763C119.317 22.3359 119.07 22.3892 118.788 22.4361C118.511 22.4787 118.241 22.517 117.977 22.5511C117.717 22.581 117.506 22.6065 117.344 22.6278C116.952 22.679 116.585 22.7621 116.244 22.8771C115.908 22.9879 115.635 23.1562 115.426 23.3821C115.222 23.6037 115.119 23.9062 115.119 24.2898C115.119 24.8139 115.313 25.2102 115.701 25.4787C116.093 25.7429 116.59 25.875 117.19 25.875ZM128.177 30.8864C127.448 30.8864 126.822 30.7926 126.297 30.6051C125.773 30.4219 125.337 30.179 124.987 29.8764C124.642 29.5781 124.367 29.2585 124.163 28.9176L125.364 28.0739C125.501 28.2528 125.673 28.4574 125.882 28.6875C126.091 28.9219 126.376 29.1243 126.739 29.2947C127.105 29.4695 127.584 29.5568 128.177 29.5568C128.969 29.5568 129.623 29.3651 130.139 28.9815C130.655 28.598 130.913 27.9972 130.913 27.179V25.1847H130.785C130.674 25.3636 130.516 25.5852 130.312 25.8494C130.111 26.1094 129.822 26.3416 129.442 26.5462C129.067 26.7464 128.56 26.8466 127.921 26.8466C127.128 26.8466 126.417 26.6591 125.786 26.2841C125.16 25.9091 124.663 25.3636 124.297 24.6477C123.935 23.9318 123.753 23.0625 123.753 22.0398C123.753 21.0341 123.93 20.1584 124.284 19.4126C124.638 18.6626 125.13 18.0831 125.761 17.674C126.391 17.2607 127.12 17.054 127.947 17.054C128.586 17.054 129.093 17.1605 129.468 17.3736C129.847 17.5824 130.137 17.821 130.337 18.0895C130.542 18.3537 130.699 18.571 130.81 18.7415H130.964V17.1818H132.421V27.2812C132.421 28.125 132.229 28.8111 131.846 29.3395C131.467 29.8722 130.955 30.2621 130.312 30.5092C129.672 30.7607 128.961 30.8864 128.177 30.8864ZM128.126 25.4915C128.731 25.4915 129.242 25.353 129.66 25.076C130.077 24.799 130.395 24.4006 130.612 23.8807C130.829 23.3608 130.938 22.7386 130.938 22.0142C130.938 21.3068 130.832 20.6825 130.619 20.1413C130.405 19.6001 130.09 19.1761 129.672 18.8693C129.255 18.5625 128.739 18.4091 128.126 18.4091C127.486 18.4091 126.954 18.571 126.528 18.8949C126.106 19.2187 125.788 19.6534 125.575 20.1989C125.366 20.7443 125.262 21.3494 125.262 22.0142C125.262 22.696 125.369 23.299 125.582 23.8232C125.799 24.343 126.119 24.7521 126.54 25.0504C126.967 25.3445 127.495 25.4915 128.126 25.4915ZM139.171 27.2045C138.285 27.2045 137.507 26.9936 136.838 26.5717C136.173 26.1499 135.653 25.5597 135.278 24.8011C134.908 24.0426 134.722 23.1562 134.722 22.142C134.722 21.1193 134.908 20.2266 135.278 19.4638C135.653 18.701 136.173 18.1087 136.838 17.6868C137.507 17.2649 138.285 17.054 139.171 17.054C140.057 17.054 140.833 17.2649 141.498 17.6868C142.167 18.1087 142.687 18.701 143.057 19.4638C143.432 20.2266 143.62 21.1193 143.62 22.142C143.62 23.1562 143.432 24.0426 143.057 24.8011C142.687 25.5597 142.167 26.1499 141.498 26.5717C140.833 26.9936 140.057 27.2045 139.171 27.2045ZM139.171 25.8494C139.844 25.8494 140.398 25.6768 140.833 25.3317C141.268 24.9865 141.589 24.5327 141.798 23.9702C142.007 23.4077 142.111 22.7983 142.111 22.142C142.111 21.4858 142.007 20.8743 141.798 20.3075C141.589 19.7408 141.268 19.2827 140.833 18.9332C140.398 18.5838 139.844 18.4091 139.171 18.4091C138.498 18.4091 137.944 18.5838 137.509 18.9332C137.074 19.2827 136.753 19.7408 136.544 20.3075C136.335 20.8743 136.231 21.4858 136.231 22.142C136.231 22.7983 136.335 23.4077 136.544 23.9702C136.753 24.5327 137.074 24.9865 137.509 25.3317C137.944 25.6768 138.498 25.8494 139.171 25.8494ZM147.431 21.0938V27H145.923V17.1818H147.38V18.7159H147.508C147.738 18.2173 148.087 17.8168 148.556 17.5142C149.025 17.2074 149.63 17.054 150.372 17.054C151.036 17.054 151.618 17.1903 152.117 17.4631C152.615 17.7315 153.003 18.1406 153.28 18.6903C153.557 19.2358 153.695 19.9261 153.695 20.7614V27H152.187V20.8636C152.187 20.0923 151.987 19.4915 151.586 19.0611C151.185 18.6264 150.636 18.4091 149.937 18.4091C149.455 18.4091 149.025 18.5135 148.646 18.7223C148.271 18.9311 147.975 19.2358 147.757 19.6364C147.54 20.0369 147.431 20.5227 147.431 21.0938Z" fill="#E4C590"/>
</svg>
